<?xml version="1.0" standalone="no"?>
<!DOCTYPE svg PUBLIC "-//W3C//DTD SVG 20010904//EN"
 "http://www.w3.org/TR/2001/REC-SVG-20010904/DTD/svg10.dtd">
<svg version="1.0" xmlns="http://www.w3.org/2000/svg"
 width="110.000000pt" height="144.000000pt" viewBox="0 0 110.000000 144.000000"
 preserveAspectRatio="xMidYMid meet">
<metadata>
Created by potrace 1.16, written by Peter Selinger 2001-2019
</metadata>
<g transform="translate(0.000000,144.000000) scale(0.100000,-0.100000)"
fill="#000000" stroke="none">
<path d="M344 1429 c-12 -6 -41 -46 -64 -88 l-42 -77 -102 2 -101 2 99 -8 c62
-6 102 -14 107 -22 5 -7 9 -43 9 -81 0 -64 -2 -69 -39 -110 -47 -52 -61 -78
-61 -114 0 -17 -8 -33 -20 -41 -29 -18 -64 -78 -94 -160 -28 -79 -33 -118 -14
-106 7 4 8 3 4 -5 -4 -6 -12 -9 -17 -6 -5 4 -9 -1 -9 -9 0 -19 30 -28 83 -24
l42 3 8 -85 c5 -47 12 -88 16 -93 11 -11 117 -27 179 -27 28 0 52 -3 52 -7 1
-5 3 -48 6 -98 3 -53 11 -96 18 -103 11 -11 11 -20 0 -50 -7 -20 -13 -44 -14
-53 0 -14 -7 -15 -42 -9 -69 12 -224 20 -208 11 8 -4 66 -13 128 -20 87 -9
121 -17 142 -33 38 -28 96 -20 152 21 23 17 54 31 70 31 15 0 28 5 28 11 0 7
-12 9 -35 5 -32 -6 -35 -5 -35 17 0 13 -10 37 -22 52 -15 20 -18 30 -10 33 8
2 12 33 12 97 l0 93 28 6 c15 3 48 8 74 12 l47 6 -6 -77 c-4 -53 -2 -79 5 -84
9 -5 7 -18 -5 -49 -14 -37 -14 -46 -2 -70 7 -15 15 -30 17 -34 2 -5 -4 -8 -14
-8 -9 0 -15 -2 -13 -4 2 -3 72 -7 154 -10 93 -3 144 -1 135 4 -8 6 -33 10 -56
10 -50 0 -58 7 -39 34 19 27 19 66 0 93 -12 17 -13 31 -5 65 5 24 10 68 10
100 l0 56 49 7 c76 10 83 20 71 84 -14 77 -13 81 20 88 17 3 33 10 36 14 3 5
10 7 15 4 5 -4 9 -2 9 3 0 6 -7 12 -15 16 -8 3 -15 13 -15 21 0 9 5 13 10 10
16 -10 12 0 -24 63 -33 55 -115 142 -135 142 -5 0 -27 29 -50 64 -23 35 -51
72 -63 82 -11 11 -3 -8 19 -41 37 -55 49 -74 94 -155 14 -26 18 -28 35 -16 17
13 22 10 51 -32 18 -25 33 -49 33 -54 0 -4 -15 -8 -34 -8 -31 0 -36 4 -46 36
-7 19 -14 33 -17 30 -3 -2 7 -44 21 -93 14 -48 30 -109 35 -135 l8 -47 -46 -6
c-61 -9 -73 -13 -35 -14 20 -1 34 -7 38 -17 4 -9 5 -18 4 -19 -4 -4 -182 -32
-288 -46 -47 -6 -175 -12 -285 -13 -205 -1 -245 5 -245 39 0 18 36 20 43 3 4
-10 7 -10 14 0 7 9 57 11 204 10 127 -2 230 2 298 11 148 21 109 25 -52 7 -73
-9 -169 -14 -213 -11 -218 13 -251 15 -271 15 -22 0 -23 4 -23 65 0 36 4 107
10 158 5 51 11 135 13 188 3 86 6 102 30 138 46 69 95 94 197 101 114 7 132
23 21 18 l-84 -3 7 93 c4 51 11 116 17 143 12 57 8 56 154 38 133 -16 125 -6
125 -163 l0 -133 -42 8 c-45 9 -111 11 -73 2 102 -22 195 -48 220 -60 28 -13
28 -13 10 2 -11 8 -37 21 -58 27 -50 15 -57 44 -26 109 l24 50 83 -4 c46 -3
80 -1 75 4 -4 4 -42 9 -83 11 -73 3 -76 4 -98 36 -12 18 -22 48 -22 66 0 33 0
33 -75 49 -101 23 -205 30 -231 16z"/>
<path d="M376 728 c-12 -47 -10 -48 74 -48 79 0 110 15 48 23 -18 2 47 5 145
5 128 2 177 -1 177 -10 0 -8 -33 -9 -125 -5 -68 4 -126 3 -129 -1 -3 -5 18 -9
47 -10 29 -1 89 -5 135 -8 l82 -6 0 33 0 34 -189 -6 c-103 -4 -202 -10 -220
-14 -24 -5 -31 -3 -31 9 0 13 23 16 153 19 l152 3 -156 2 c-155 2 -157 2 -163
-20z"/>
</g>
</svg>
